<svg width="1912" height="1069" viewBox="0 0 1912 1069" fill="none" xmlns="http://www.w3.org/2000/svg">
<path d="M299.25 204.25L207 204.25V328.75H141.75V204.25L0 204.25V119.25L364.25 119.25V353.75H299.25V204.25Z" fill="#020710"/>
<path d="M346.041 885.643L332.275 845.834C331.258 843.308 330.172 840.348 329.016 836.956C327.859 833.497 326.701 829.771 325.541 825.779C324.568 829.852 323.527 833.626 322.417 837.1C321.306 840.574 320.26 843.581 319.277 846.121L306.142 885.91L346.041 885.643ZM400.112 940.984L373.912 941.158C370.979 941.178 368.608 940.527 366.799 939.206C364.99 937.818 363.611 936.06 362.664 933.933L353.894 908.591L298.496 908.961L290.065 934.418C289.345 936.289 288.023 937.998 286.1 939.545C284.243 941.024 281.914 941.773 279.114 941.791L252.715 941.967L308.141 795.894L342.74 795.663L400.112 940.984Z" fill="#020710"/>
<path d="M1652.04 141.643L1638.28 101.834C1637.26 99.3077 1636.17 96.3482 1635.02 92.9558C1633.86 89.4968 1632.7 85.7711 1631.54 81.7788C1630.57 85.852 1629.53 89.6257 1628.42 93.0999C1627.31 96.574 1626.26 99.5811 1625.28 102.121L1612.14 141.91L1652.04 141.643ZM1706.11 196.984L1679.91 197.158C1676.98 197.178 1674.61 196.527 1672.8 195.206C1670.99 193.818 1669.61 192.06 1668.66 189.933L1659.89 164.591L1604.5 164.961L1596.07 190.418C1595.34 192.289 1594.02 193.998 1592.1 195.545C1590.24 197.024 1587.91 197.773 1585.11 197.791L1558.71 197.967L1614.14 51.8942L1648.74 51.6633L1706.11 196.984Z" fill="#041228"/>
<path d="M197 580.9V614.9H51.3L51.3 580.9H197Z" fill="#041228"/>
<path d="M1606.9 1070.56C1616.95 1070.49 1625.12 1069.16 1631.4 1066.57C1637.83 1063.97 1642.84 1060.64 1646.41 1056.57C1649.98 1052.49 1652.43 1047.9 1653.74 1042.79C1655.06 1037.68 1655.7 1032.5 1655.66 1027.25C1655.62 1021.25 1654.76 1015.86 1653.08 1011.07C1651.55 1006.28 1648.82 1002.25 1644.9 998.975C1641.13 995.7 1636.09 993.184 1629.77 991.426C1623.46 989.668 1615.51 988.821 1605.91 988.885L1552.81 989.24L1553.35 1070.91L1606.9 1070.56ZM1551.93 857.392L1552.47 938.391L1592.07 938.126C1600.47 938.07 1608.04 937.42 1614.78 936.175C1621.52 934.93 1627.21 932.792 1631.84 929.761C1636.62 926.729 1640.19 922.58 1642.55 917.314C1645.07 912.047 1646.3 905.439 1646.25 897.489C1646.2 889.689 1645.18 883.246 1643.19 878.159C1641.21 872.922 1638.18 868.742 1634.11 865.619C1630.04 862.496 1624.85 860.281 1618.54 858.973C1612.38 857.664 1605.03 857.038 1596.48 857.095L1551.93 857.392ZM1596.1 800.171C1618.75 800.02 1638.04 801.992 1653.96 806.085C1669.89 810.179 1682.9 816.017 1693.01 823.6C1703.11 831.183 1710.44 840.434 1715.02 851.354C1719.74 862.273 1722.15 874.482 1722.24 887.981C1722.28 895.331 1721.28 902.463 1719.23 909.377C1717.17 916.141 1713.92 922.538 1709.46 928.568C1705 934.448 1699.26 939.886 1692.24 944.883C1685.22 949.88 1676.78 954.211 1666.9 957.877C1688.54 962.983 1704.57 971.351 1714.99 982.982C1725.42 994.613 1730.7 1009.73 1730.82 1028.33C1730.92 1042.28 1728.3 1055.27 1722.98 1067.31C1717.66 1079.34 1709.78 1089.89 1699.34 1098.96C1689.05 1107.88 1676.27 1114.94 1661.01 1120.15C1645.74 1125.2 1628.28 1127.79 1608.63 1127.92L1477.69 1128.79L1475.5 800.976L1596.1 800.171Z" fill="#020710"/>
<path d="M1301.62 247.675C1301.62 237.625 1300.35 229.45 1297.8 223.15C1295.25 216.7 1291.95 211.675 1287.9 208.075C1283.85 204.475 1279.27 202 1274.17 200.65C1269.07 199.3 1263.9 198.625 1258.65 198.625C1252.65 198.625 1247.25 199.45 1242.45 201.1C1237.65 202.6 1233.6 205.3 1230.3 209.2C1227 212.95 1224.45 217.975 1222.65 224.275C1220.85 230.575 1219.95 238.525 1219.95 248.125V301.225L1301.62 301.225V247.675ZM1088.1 301.225H1169.1V261.625C1169.1 253.225 1168.5 245.65 1167.3 238.9C1166.1 232.15 1164 226.45 1161 221.8C1158 217 1153.87 213.4 1148.62 211C1143.37 208.45 1136.77 207.175 1128.82 207.175C1121.02 207.175 1114.57 208.15 1109.47 210.1C1104.22 212.05 1100.02 215.05 1096.87 219.1C1093.72 223.15 1091.47 228.325 1090.12 234.625C1088.77 240.775 1088.1 248.125 1088.1 256.675V301.225ZM1031.17 256.675C1031.17 234.025 1033.27 214.75 1037.47 198.85C1041.67 182.95 1047.6 169.975 1055.25 159.925C1062.9 149.875 1072.2 142.6 1083.15 138.1C1094.1 133.45 1106.32 131.125 1119.82 131.125C1127.17 131.125 1134.3 132.175 1141.2 134.275C1147.95 136.375 1154.32 139.675 1160.32 144.175C1166.17 148.675 1171.57 154.45 1176.52 161.5C1181.47 168.55 1185.75 177.025 1189.35 186.925C1194.6 165.325 1203.07 149.35 1214.77 139C1226.47 128.65 1241.62 123.475 1260.22 123.475C1274.17 123.475 1287.15 126.175 1299.15 131.575C1311.15 136.975 1321.65 144.925 1330.65 155.425C1339.5 165.775 1346.47 178.6 1351.58 193.9C1356.53 209.2 1359 226.675 1359 246.325V377.275L1031.17 377.275V256.675Z" fill="#020710"/>
<path d="M1879.19 615.202L1802.69 615.713L1800.5 287.895L1877 287.385L1879.19 615.202Z" fill="#020710"/>
</svg>
