<svg width="1912" height="1094" viewBox="0 0 1912 1094" fill="none" xmlns="http://www.w3.org/2000/svg">
<g filter="url(#filter0_d_150_2)">
<path d="M299.25 229.25L207 229.25V353.75H141.75V229.25L0 229.25V144.25L364.25 144.25V378.75H299.25V229.25Z" fill="#020710"/>
<path d="M346.041 910.643L332.275 870.834C331.258 868.308 330.172 865.348 329.016 861.956C327.859 858.497 326.701 854.771 325.541 850.779C324.568 854.852 323.527 858.626 322.417 862.1C321.306 865.574 320.26 868.581 319.277 871.121L306.142 910.91L346.041 910.643ZM400.112 965.984L373.912 966.158C370.979 966.178 368.608 965.527 366.799 964.206C364.99 962.818 363.611 961.06 362.664 958.933L353.894 933.591L298.496 933.961L290.065 959.418C289.345 961.289 288.023 962.998 286.1 964.545C284.243 966.024 281.914 966.773 279.114 966.791L252.715 966.967L308.141 820.894L342.74 820.663L400.112 965.984Z" fill="#020710"/>
<path d="M1634.04 141.643L1620.28 101.834C1619.26 99.3077 1618.17 96.3482 1617.02 92.9558C1615.86 89.4968 1614.7 85.7711 1613.54 81.7788C1612.57 85.852 1611.53 89.6257 1610.42 93.0999C1609.31 96.574 1608.26 99.5811 1607.28 102.121L1594.14 141.91L1634.04 141.643ZM1688.11 196.984L1661.91 197.158C1658.98 197.178 1656.61 196.527 1654.8 195.206C1652.99 193.818 1651.61 192.06 1650.66 189.933L1641.89 164.591L1586.5 164.961L1578.07 190.418C1577.34 192.289 1576.02 193.998 1574.1 195.545C1572.24 197.024 1569.91 197.773 1567.11 197.791L1540.71 197.967L1596.14 51.8942L1630.74 51.6633L1688.11 196.984Z" fill="#041228"/>
<path d="M197 605.9V639.9H51.3L51.3 605.9H197Z" fill="#041228"/>
<path d="M1604.9 1010.56C1614.95 1010.49 1623.12 1009.16 1629.4 1006.57C1635.83 1003.97 1640.84 1000.64 1644.41 996.566C1647.98 992.492 1650.43 987.901 1651.74 982.792C1653.06 977.683 1653.7 972.504 1653.66 967.254C1653.62 961.254 1652.76 955.86 1651.08 951.071C1649.55 946.281 1646.82 942.249 1642.9 938.975C1639.13 935.7 1634.09 933.184 1627.77 931.426C1621.46 929.668 1613.51 928.821 1603.91 928.885L1550.81 929.24L1551.35 1010.91L1604.9 1010.56ZM1549.93 797.392L1550.47 878.391L1590.07 878.126C1598.47 878.07 1606.04 877.42 1612.78 876.175C1619.52 874.93 1625.21 872.792 1629.84 869.761C1634.62 866.729 1638.19 862.58 1640.55 857.314C1643.07 852.047 1644.3 845.439 1644.25 837.489C1644.2 829.689 1643.18 823.246 1641.19 818.159C1639.21 812.922 1636.18 808.742 1632.11 805.619C1628.04 802.496 1622.85 800.281 1616.54 798.973C1610.38 797.664 1603.03 797.038 1594.48 797.095L1549.93 797.392ZM1594.1 740.171C1616.75 740.02 1636.04 741.992 1651.96 746.085C1667.89 750.179 1680.9 756.017 1691.01 763.6C1701.11 771.183 1708.44 780.434 1713.02 791.354C1717.74 802.273 1720.15 814.482 1720.24 827.981C1720.28 835.331 1719.28 842.463 1717.23 849.377C1715.17 856.141 1711.92 862.538 1707.46 868.568C1703 874.448 1697.26 879.886 1690.24 884.883C1683.22 889.88 1674.78 894.211 1664.9 897.877C1686.54 902.983 1702.57 911.351 1712.99 922.982C1723.42 934.613 1728.7 949.728 1728.82 968.327C1728.92 982.277 1726.3 995.27 1720.98 1007.31C1715.66 1019.34 1707.78 1029.89 1697.34 1038.96C1687.05 1047.88 1674.27 1054.94 1659.01 1060.15C1643.74 1065.2 1626.28 1067.79 1606.63 1067.92L1475.69 1068.79L1473.5 740.976L1594.1 740.171Z" fill="#020710"/>
<path d="M1301.62 272.675C1301.62 262.625 1300.35 254.45 1297.8 248.15C1295.25 241.7 1291.95 236.675 1287.9 233.075C1283.85 229.475 1279.27 227 1274.17 225.65C1269.07 224.3 1263.9 223.625 1258.65 223.625C1252.65 223.625 1247.25 224.45 1242.45 226.1C1237.65 227.6 1233.6 230.3 1230.3 234.2C1227 237.95 1224.45 242.975 1222.65 249.275C1220.85 255.575 1219.95 263.525 1219.95 273.125V326.225L1301.62 326.225V272.675ZM1088.1 326.225H1169.1V286.625C1169.1 278.225 1168.5 270.65 1167.3 263.9C1166.1 257.15 1164 251.45 1161 246.8C1158 242 1153.87 238.4 1148.62 236C1143.37 233.45 1136.77 232.175 1128.82 232.175C1121.02 232.175 1114.57 233.15 1109.47 235.1C1104.22 237.05 1100.02 240.05 1096.87 244.1C1093.72 248.15 1091.47 253.325 1090.12 259.625C1088.77 265.775 1088.1 273.125 1088.1 281.675V326.225ZM1031.17 281.675C1031.17 259.025 1033.27 239.75 1037.47 223.85C1041.67 207.95 1047.6 194.975 1055.25 184.925C1062.9 174.875 1072.2 167.6 1083.15 163.1C1094.1 158.45 1106.32 156.125 1119.82 156.125C1127.17 156.125 1134.3 157.175 1141.2 159.275C1147.95 161.375 1154.32 164.675 1160.32 169.175C1166.17 173.675 1171.57 179.45 1176.52 186.5C1181.47 193.55 1185.75 202.025 1189.35 211.925C1194.6 190.325 1203.07 174.35 1214.77 164C1226.47 153.65 1241.62 148.475 1260.22 148.475C1274.17 148.475 1287.15 151.175 1299.15 156.575C1311.15 161.975 1321.65 169.925 1330.65 180.425C1339.5 190.775 1346.47 203.6 1351.58 218.9C1356.53 234.2 1359 251.675 1359 271.325V402.275L1031.17 402.275V281.675Z" fill="#020710"/>
<path d="M1879.19 640.202L1802.69 640.713L1800.5 312.895L1877 312.385L1879.19 640.202Z" fill="#020710"/>
</g>
<defs>
<filter id="filter0_d_150_2" x="-4" y="51.2869" width="1887.19" height="1025.51" filterUnits="userSpaceOnUse" color-interpolation-filters="sRGB">
<feFlood flood-opacity="0" result="BackgroundImageFix"/>
<feColorMatrix in="SourceAlpha" type="matrix" values="0 0 0 0 0 0 0 0 0 0 0 0 0 0 0 0 0 0 127 0" result="hardAlpha"/>
<feOffset dy="4"/>
<feGaussianBlur stdDeviation="2"/>
<feComposite in2="hardAlpha" operator="out"/>
<feColorMatrix type="matrix" values="0 0 0 0 0 0 0 0 0 0 0 0 0 0 0 0 0 0 0.25 0"/>
<feBlend mode="normal" in2="BackgroundImageFix" result="effect1_dropShadow_150_2"/>
<feBlend mode="normal" in="SourceGraphic" in2="effect1_dropShadow_150_2" result="shape"/>
</filter>
</defs>
</svg>
